<svg xmlns="http://www.w3.org/2000/svg" width="516" height="503.425" viewBox="0 0 516 503.425"><defs></defs><g transform="translate(179 -264.575)"><path class="a" d="M211.676,294.961A175.631,175.631,0,0,0,82.72,0V30.181A145.451,145.451,0,0,1,185,279.093Z" transform="translate(-4.235 264.607)" fill="#fff"/><path class="a" d="M82.72,53.113a70.123,70.123,0,1,1,0,140.246v28.3a98.414,98.414,0,1,0,0-196.827Z" transform="translate(-4.235 317.033)" fill="#fff"/><path class="a" d="M120.216,91.7A257.449,257.449,0,0,0,.007,299.915a9.336,9.336,0,0,0,9.338,9.77h9.493a9.336,9.336,0,0,0,9.338-8.93,229.172,229.172,0,0,1,111.9-188.022Z" transform="translate(-178.997 458.222)" fill="#fff"/><path class="a" d="M206.235,133.586A152.057,152.057,0,0,0,54.588,276.711a9.336,9.336,0,0,1-9.338,8.681H33.609a9.336,9.336,0,0,1-9.338-9.894A182.4,182.4,0,0,1,206.235,103.25" transform="translate(-127.749 482.609)" fill="#fff"/><path class="a" d="M408.129,441.136a9.336,9.336,0,0,1-9.338,9.8H387.057a9.336,9.336,0,0,1-9.338-8.867C373.05,320.289,272.544,221.72,149.533,221.689h0a98.437,98.437,0,1,1,0-196.874l9.8,15.137-9.8,13.192a70.123,70.123,0,1,0,0,140.246v-.016c138.831-.377,253.088,109.093,258.6,247.761Z" transform="translate(-71.141 317.001)" fill="#fff"/><path class="a" d="M383.973,493.4a9.336,9.336,0,0,1-9.338,9.957H362.9a9.336,9.336,0,0,1-9.338-8.743A152.026,152.026,0,0,0,201.916,351.485V351.3c-97.058,0-175.71-78.681-175.676-175.7S104.983-.044,202.04-.01L211.1,15.3,202.04,30.233a145.45,145.45,0,1,0,0,290.9v-.016A182.337,182.337,0,0,1,383.973,493.4Z" transform="translate(-123.555 264.585)" fill="#fff"/></g></svg>